<?xml version="1.0" standalone="no"?>
<!DOCTYPE svg PUBLIC "-//W3C//DTD SVG 20010904//EN"
 "http://www.w3.org/TR/2001/REC-SVG-20010904/DTD/svg10.dtd">
<svg version="1.0" xmlns="http://www.w3.org/2000/svg"
 width="1000.000000pt" height="1000.000000pt" viewBox="0 0 1000.000000 1000.000000"
 preserveAspectRatio="xMidYMid meet">
<metadata>
Created by potrace 1.14, written by Peter Selinger 2001-2017
</metadata>
<g transform="translate(0.000000,1000.000000) scale(0.100000,-0.100000)"
fill="#000000" stroke="none">
<path d="M4739 9926 c-2 -2 -52 -7 -111 -10 -58 -4 -117 -9 -130 -11 -12 -2
-50 -6 -83 -10 -33 -3 -67 -8 -75 -10 -8 -2 -42 -6 -75 -10 -33 -3 -78 -10
-100 -15 -22 -5 -56 -11 -75 -14 -57 -9 -175 -34 -283 -62 -56 -14 -109 -27
-117 -29 -42 -9 -324 -100 -413 -134 -368 -138 -685 -301 -1022 -526 -66 -43
-124 -83 -130 -87 -5 -5 -44 -34 -85 -65 -95 -71 -204 -158 -255 -204 -151
-136 -192 -174 -295 -278 -473 -480 -835 -1035 -1076 -1648 -44 -112 -130
-357 -139 -397 -3 -12 -27 -106 -54 -209 -27 -103 -49 -190 -49 -192 0 -5 -14
-82 -17 -95 0 -3 -4 -27 -9 -53 -4 -27 -9 -59 -12 -70 -2 -12 -7 -42 -10 -67
-3 -25 -7 -52 -9 -60 -2 -8 -7 -46 -11 -85 -3 -38 -8 -77 -9 -86 -27 -145 -26
-786 1 -1012 69 -576 178 -986 391 -1472 59 -134 155 -328 210 -425 243 -424
486 -743 818 -1075 175 -174 192 -190 345 -316 425 -349 885 -617 1395 -812
236 -91 604 -193 830 -232 17 -3 41 -7 55 -10 32 -7 278 -41 345 -49 262 -28
826 -29 1015 -1 14 2 54 7 90 10 36 4 74 9 84 11 11 2 42 6 70 9 28 3 69 10
91 15 22 5 56 11 75 14 19 3 46 8 60 11 14 3 38 8 54 10 76 14 385 98 501 135
653 213 1267 568 1779 1030 66 59 318 311 375 375 68 77 284 345 307 382 16
24 27 40 72 98 28 37 191 301 247 400 80 142 177 341 235 480 23 55 46 109 51
120 42 89 193 578 213 690 3 17 8 41 11 55 9 39 35 170 41 204 2 17 7 38 9 46
2 8 7 39 10 69 4 30 8 61 10 70 1 9 6 45 10 81 3 36 8 76 10 90 26 171 26 821
0 1000 -2 14 -6 52 -10 85 -3 33 -13 103 -21 155 -8 52 -16 106 -19 120 -10
64 -47 238 -71 332 -14 57 -27 110 -29 118 -2 8 -19 67 -39 130 -263 863 -762
1640 -1443 2248 -44 40 -94 82 -110 94 -15 12 -30 25 -33 28 -3 3 -34 28 -70
57 -557 438 -1170 740 -1845 911 -145 37 -368 83 -470 96 -22 3 -71 10 -110
15 -38 6 -104 13 -145 17 -41 3 -91 8 -110 11 -41 5 -636 13 -641 9z m501
-711 c69 -4 141 -9 160 -10 111 -11 147 -15 198 -24 32 -6 73 -12 92 -15 216
-32 542 -119 796 -214 368 -136 772 -363 1101 -619 45 -34 88 -69 95 -75 7 -7
43 -37 78 -67 81 -68 356 -342 436 -436 61 -71 162 -198 199 -249 11 -16 29
-40 41 -55 41 -53 173 -260 238 -374 86 -150 193 -372 255 -530 82 -205 186
-567 221 -762 5 -33 12 -69 14 -80 2 -11 7 -42 10 -68 4 -27 9 -56 11 -65 7
-38 23 -203 31 -317 7 -102 7 -405 -1 -510 -11 -161 -15 -210 -20 -235 -2 -14
-7 -47 -10 -75 -3 -27 -7 -61 -10 -75 -3 -14 -8 -41 -11 -60 -4 -29 -15 -88
-38 -205 -6 -31 -62 -242 -84 -320 -25 -83 -125 -357 -162 -440 -184 -416
-420 -788 -710 -1120 -141 -162 -406 -410 -595 -558 -312 -243 -717 -470
-1088 -608 -181 -68 -472 -155 -587 -175 -14 -3 -59 -12 -100 -20 -41 -9 -86
-17 -100 -19 -14 -2 -38 -6 -55 -8 -72 -12 -192 -28 -245 -32 -282 -23 -565
-22 -800 0 -113 11 -148 15 -198 24 -32 6 -73 12 -92 15 -68 10 -205 37 -235
46 -16 5 -42 11 -56 14 -131 22 -596 178 -719 240 -14 7 -88 44 -165 81 -280
136 -558 316 -825 534 -142 116 -435 409 -556 556 -477 578 -808 1296 -918
1993 -2 15 -8 47 -11 72 -4 25 -9 52 -10 60 -2 9 -6 46 -9 82 -4 37 -9 77 -11
89 -7 34 -18 290 -18 404 0 102 12 365 18 395 2 9 6 43 9 76 11 95 16 137 21
164 3 14 8 41 11 60 56 378 205 827 399 1205 219 426 442 732 780 1071 269
270 518 465 837 658 170 101 498 261 638 309 25 9 76 27 114 42 183 69 529
156 761 190 176 26 258 34 415 41 74 3 136 7 137 8 4 3 210 -2 323 -9z"/>
<path d="M4870 7805 c-346 -68 -587 -370 -574 -718 7 -180 73 -333 199 -462
90 -93 164 -141 280 -182 74 -25 92 -28 225 -28 133 0 151 3 225 28 44 16 107
45 140 65 151 91 280 262 316 420 6 26 13 56 15 67 3 11 6 53 8 94 6 158 -45
320 -139 447 -43 57 -137 147 -174 165 -14 7 -37 21 -51 29 -31 20 -120 55
-180 71 -65 16 -215 18 -290 4z"/>
<path d="M2636 6573 c-37 -8 -81 -22 -97 -32 -57 -35 -121 -104 -147 -160 -22
-47 -26 -70 -26 -146 -1 -76 3 -99 26 -146 33 -72 84 -128 146 -162 40 -22
249 -80 362 -100 14 -3 43 -10 66 -16 36 -10 82 -20 174 -37 14 -3 41 -9 60
-14 19 -5 46 -11 60 -14 14 -2 81 -16 150 -30 69 -15 136 -29 150 -31 14 -2
50 -9 80 -15 30 -6 73 -13 95 -16 22 -3 47 -7 55 -9 8 -3 32 -7 54 -11 21 -3
48 -8 60 -10 11 -2 41 -7 66 -10 25 -2 68 -9 95 -14 42 -8 114 -17 198 -25 28
-2 34 -19 31 -98 -2 -39 -5 -171 -8 -292 -8 -288 -19 -527 -31 -665 -2 -25 -7
-79 -9 -120 -3 -42 -8 -96 -10 -120 -3 -25 -8 -72 -11 -105 -3 -33 -8 -73 -10
-90 -3 -16 -9 -68 -15 -115 -15 -116 -18 -142 -36 -245 -20 -122 -21 -127 -28
-155 -3 -14 -8 -37 -10 -53 -3 -15 -7 -35 -10 -45 -3 -9 -7 -29 -10 -44 -11
-63 -90 -339 -136 -471 -27 -78 -83 -228 -125 -332 -83 -206 -91 -249 -69
-348 16 -66 52 -128 103 -176 153 -144 412 -117 530 54 54 77 239 573 321 857
51 180 111 455 135 623 8 53 15 96 21 116 4 14 21 17 114 17 93 0 110 -2 114
-16 3 -10 14 -74 25 -143 57 -355 158 -729 286 -1059 20 -52 46 -120 57 -150
12 -30 26 -68 33 -85 7 -16 21 -50 31 -75 42 -104 120 -181 217 -214 59 -20
168 -21 230 -2 103 31 203 138 231 247 24 94 13 148 -68 352 -187 465 -298
879 -351 1302 -3 28 -8 64 -10 80 -8 67 -15 123 -20 180 -3 33 -8 74 -10 91
-3 17 -7 67 -10 111 -3 44 -7 100 -9 124 -4 48 -14 218 -21 359 -5 92 -16 449
-18 598 -2 94 3 110 38 110 14 0 137 14 155 17 8 2 38 6 65 9 28 4 61 8 75 11
14 3 41 7 60 10 19 3 42 8 50 10 8 2 35 6 61 9 25 3 52 7 60 10 7 3 32 8 54
11 22 3 119 22 215 41 96 19 186 38 199 40 12 3 53 12 90 20 36 9 77 18 91 20
14 3 54 12 90 20 36 9 115 27 175 40 61 14 119 27 130 30 11 3 31 7 45 10 47
9 127 52 167 88 22 19 55 64 74 98 32 59 34 69 34 158 -1 84 -4 102 -29 153
-33 68 -92 129 -157 162 -94 49 -165 48 -387 -5 -143 -33 -259 -59 -381 -85
-9 -2 -50 -11 -91 -20 -41 -9 -84 -18 -95 -21 -11 -2 -29 -6 -40 -8 -65 -14
-261 -51 -350 -66 -33 -5 -69 -12 -80 -14 -11 -2 -42 -7 -68 -10 -27 -4 -59
-9 -70 -12 -12 -2 -42 -6 -67 -9 -105 -12 -136 -17 -150 -20 -8 -2 -51 -7 -95
-10 -44 -4 -91 -8 -104 -10 -144 -23 -823 -23 -950 0 -9 1 -47 6 -86 10 -73 7
-96 10 -180 20 -58 8 -71 9 -180 25 -44 7 -88 14 -98 16 -10 2 -71 12 -135 24
-154 26 -148 25 -367 71 -193 40 -614 136 -637 144 -44 16 -141 20 -202 8z"/>
</g>
</svg>
